<svg xmlns="http://www.w3.org/2000/svg" viewBox="0 0 212.21 249.78"><defs><style>.cls-1{fill:#003;}.cls-2{fill:#09f;}.cls-3{fill:#fff;}</style></defs><g id="Layer_2" data-name="Layer 2"><g id="Layer_1-2" data-name="Layer 1"><path class="cls-1" d="M182.2,73.25a166.6,166.6,0,0,1-9.26,55c-15.59,44.73-46.9,72.19-67.19,86-20.06-13.94-51-41.47-66.48-86a168.74,168.74,0,0,1-9-65.17l75.42-30.72,76.2,30.75C182.11,66.52,182.2,69.89,182.2,73.25Z"/><path class="cls-2" d="M211,51.1l-1-9L105.65,0,2.14,42.19l-1,8.92a199.33,199.33,0,0,0,9.74,87C31.32,196.93,74.11,230.3,97.8,245l7.82,4.82,7.85-4.77c23.95-14.55,67.2-47.79,87.79-106.88A198.06,198.06,0,0,0,211,51.1Zm-38.08,77.16c-15.59,44.73-46.9,72.19-67.19,86-20.06-13.94-51-41.47-66.48-86a168.74,168.74,0,0,1-9-65.17l75.42-30.72,76.2,30.75c.2,3.38.29,6.75.29,10.11A166.6,166.6,0,0,1,172.94,128.26Z"/><path class="cls-3" d="M124.11,111a18,18,0,0,1-9,15.58V156h-18V126.53a18,18,0,1,1,27-15.58Z"/></g></g></svg>