<svg xmlns="http://www.w3.org/2000/svg" viewBox="0 0 193.2 228.39"><defs><style>.cls-1{fill:#003;}.cls-2{fill:#09f;}.cls-3{fill:#fff;}</style></defs><g id="Layer_2" data-name="Layer 2"><g id="Layer_1-2" data-name="Layer 1"><path class="cls-1" d="M172.4,121.13c-17.69,50.76-54.17,80.37-76.2,94.32-21.8-14-57.88-43.77-75.41-94.31a178.59,178.59,0,0,1-9-74.86l84.44-34.4,85.26,34.41A177.31,177.31,0,0,1,172.4,121.13Z"/><path class="cls-2" d="M192.06,41.85l-.35-3.28L96.16,0,1.47,38.59l-.35,3.27a189.86,189.86,0,0,0,9.27,82.88c19.44,56.05,60.28,87.89,82.89,101.88l2.87,1.77L99,226.64c22.86-13.89,64.14-45.6,83.75-101.89A188.58,188.58,0,0,0,192.06,41.85ZM172.4,121.13c-17.69,50.76-54.17,80.37-76.2,94.32-21.8-14-57.88-43.77-75.41-94.31a178.59,178.59,0,0,1-9-74.86l84.44-34.4,85.26,34.41A177.31,177.31,0,0,1,172.4,121.13Z"/><path class="cls-3" d="M114.6,100.7a18,18,0,0,1-9,15.57V145.7h-18V116.27a18,18,0,1,1,27-15.57Z"/></g></g></svg>