<svg xmlns="http://www.w3.org/2000/svg" viewBox="0 0 257.86 257.87"><defs><style>.cls-1{fill-rule:evenodd;}</style></defs><g id="Layer_2" data-name="Layer 2"><g id="Layer_1-2" data-name="Layer 1"><g id="SVGRepo_iconCarrier" data-name="SVGRepo iconCarrier"><g id="Page-1"><g id="Dribbble-Light-Preview"><g id="icons"><path id="github-_142_" data-name="github-[#142]" class="cls-1" d="M128.93,0c71.21,0,128.93,59.18,128.93,132.19,0,58.4-36.9,107.93-88.09,125.43-6.54,1.3-8.86-2.82-8.86-6.35,0-4.35.15-18.59.15-36.28,0-12.32-4.12-20.36-8.75-24.47,28.71-3.27,58.88-14.45,58.88-65.23a51.73,51.73,0,0,0-13.28-35.48c1.34-3.33,5.76-16.78-1.26-35,0,0-10.81-3.54-35.42,13.56a119.08,119.08,0,0,0-64.57,0C72,51.28,61.19,54.82,61.19,54.82c-7,18.21-2.58,31.66-1.25,35a51.92,51.92,0,0,0-13.28,35.48c0,50.65,30.11,62,58.74,65.34-3.69,3.3-7,9.13-8.19,17.67-7.34,3.38-26,9.22-37.51-11,0,0-6.82-12.7-19.77-13.63,0,0-12.57-.17-.88,8,0,0,8.45,4.06,14.32,19.34,0,0,7.56,23.6,43.43,15.6.07,11.05.18,21.47.18,24.61,0,3.5-2.37,7.59-8.8,6.36C36.94,240.16,0,190.6,0,132.19,0,59.18,57.74,0,128.93,0"/></g></g></g></g></g></g></svg>